<?xml version="1.0" standalone="no"?>
<!DOCTYPE svg PUBLIC "-//W3C//DTD SVG 1.1//EN" "http://www.w3.org/Graphics/SVG/1.1/DTD/svg11.dtd" >
<svg xmlns="http://www.w3.org/2000/svg" xmlns:xlink="http://www.w3.org/1999/xlink" version="1.1">
<metadata>
Created by FontForge 20190801 at Tue Feb 13 01:06:28 2018
 By Jimmy Wärting
Copyright \(c\) 2017 by Martin V_cha. All rights reserved.
</metadata>
<defs>
<font id="RoobertTRIAL-Regular" horiz-adv-x="597" >
  <font-face 
    font-family="Roobert TRIAL"
    font-weight="400"
    font-stretch="normal"
    units-per-em="1000"
    panose-1="0 0 5 0 0 0 0 0 0 0"
    ascent="796"
    descent="-204"
    x-height="504"
    cap-height="700"
    bbox="-45 -204 1068 796"
    underline-thickness="50"
    underline-position="-100"
    stemh="59"
    stemv="70"
    unicode-range="U+000D-007A"
  />
<missing-glyph horiz-adv-x="1119" 
d="M551 -204v1000c-266 -9 -483 -234 -483 -501c0 -268 215 -490 483 -499zM585 793v-994c84 24 152 241 152 496s-69 473 -152 498zM769 295c0 -214 -44 -397 -113 -481c148 55 254 252 254 481c0 227 -106 426 -254 483c69 -85 113 -269 113 -483zM754 -168
c186 74 314 258 314 463s-129 390 -317 465c118 -94 192 -271 192 -465s-74 -370 -189 -463z" />
    <glyph glyph-name=".notdef" horiz-adv-x="1119" 
d="M551 -204v1000c-266 -9 -483 -234 -483 -501c0 -268 215 -490 483 -499zM585 793v-994c84 24 152 241 152 496s-69 473 -152 498zM769 295c0 -214 -44 -397 -113 -481c148 55 254 252 254 481c0 227 -106 426 -254 483c69 -85 113 -269 113 -483zM754 -168
c186 74 314 258 314 463s-129 390 -317 465c118 -94 192 -271 192 -465s-74 -370 -189 -463z" />
    <glyph glyph-name="A" unicode="A" horiz-adv-x="649" 
d="M553 0l-72 189h-312l-73 -189h-89l279 700h77l279 -700h-89zM198 265h253l-126 330z" />
    <glyph glyph-name="B" unicode="B" horiz-adv-x="611" 
d="M74 0v700h250c133 0 214 -66 214 -180c0 -65 -46 -117 -93 -137c72 -24 124 -81 124 -179c0 -126 -85 -204 -229 -204h-266zM159 410h163c84 0 131 36 131 108s-47 107 -131 107h-163v-215zM159 77h167c103 0 156 45 156 128c0 84 -53 129 -156 129h-167v-257z" />
    <glyph glyph-name="C" unicode="C" horiz-adv-x="708" 
d="M379 -8c-175 0 -337 117 -337 358c0 242 163 358 337 358c152 0 277 -95 296 -226h-90c-12 86 -99 149 -206 149c-146 0 -249 -99 -249 -281s103 -281 249 -281c109 0 197 63 207 149h88c-15 -131 -140 -226 -295 -226z" />
    <glyph glyph-name="D" unicode="D" horiz-adv-x="671" 
d="M74 0v700h206c196 0 349 -127 349 -350s-153 -350 -349 -350h-206zM159 77h119c136 0 262 80 262 273s-126 273 -262 273h-119v-546z" />
    <glyph glyph-name="E" unicode="E" horiz-adv-x="566" 
d="M74 0v700h438v-77h-353v-223h287v-77h-287v-246h364v-77h-449z" />
    <glyph glyph-name="F" unicode="F" horiz-adv-x="555" 
d="M74 0v700h438v-77h-353v-231h287v-77h-287v-315h-85z" />
    <glyph glyph-name="G" unicode="G" horiz-adv-x="730" 
d="M378 -8c-173 0 -336 119 -336 358s164 358 338 358c160 0 285 -95 301 -229h-90c-16 89 -104 152 -212 152c-144 0 -250 -99 -250 -281c0 -181 106 -283 250 -283c115 0 217 65 217 166c0 32 -21 53 -55 53h-158v74h173c51 0 124 -40 124 -120v-240h-79v122
c-33 -77 -120 -130 -223 -130z" />
    <glyph glyph-name="H" unicode="H" horiz-adv-x="689" 
d="M530 700h85v-700h-85v323h-371v-323h-85v700h85v-300h371v300z" />
    <glyph glyph-name="I" unicode="I" horiz-adv-x="233" 
d="M74 0v700h85v-700h-85z" />
    <glyph glyph-name="J" unicode="J" horiz-adv-x="316" 
d="M18 77h87c44 0 67 35 67 102v521h85v-523c0 -116 -52 -177 -146 -177h-93v77z" />
    <glyph glyph-name="K" unicode="K" horiz-adv-x="635" 
d="M521 0l-258 358l-103 -106v-252h-86v700h86v-333l325 333h108l-272 -282l303 -418h-103z" />
    <glyph glyph-name="L" unicode="L" horiz-adv-x="523" 
d="M74 0v700h85v-623h350v-77h-435z" />
    <glyph glyph-name="M" unicode="M" horiz-adv-x="831" 
d="M74 0v700h111l231 -585l230 585h111v-700h-83v558l-221 -558h-75l-221 558v-558h-83z" />
    <glyph glyph-name="N" unicode="N" horiz-adv-x="691" 
d="M74 0v700h97l361 -570v570h85v-700h-98l-360 568v-568h-85z" />
    <glyph glyph-name="O" unicode="O" horiz-adv-x="770" 
d="M385 -8c-197 0 -343 152 -343 358s146 358 343 358s344 -152 344 -358s-147 -358 -344 -358zM385 69c147 0 256 120 256 281s-109 281 -256 281s-255 -120 -255 -281s108 -281 255 -281z" />
    <glyph glyph-name="P" unicode="P" horiz-adv-x="586" 
d="M74 0v700h263c139 0 223 -84 223 -207s-84 -207 -223 -207h-178v-286h-85zM159 362h178c99 0 136 62 136 131s-37 131 -136 131h-178v-262z" />
    <glyph glyph-name="Q" unicode="Q" horiz-adv-x="770" 
d="M729 350c0 -192 -127 -337 -304 -356v-40c0 -67 28 -89 94 -89h88v-69h-89c-114 0 -171 47 -171 156v42c-177 18 -305 163 -305 356c0 206 146 358 343 358s344 -152 344 -358zM130 350c0 -161 108 -281 255 -281s256 120 256 281s-109 281 -256 281s-255 -120 -255 -281
z" />
    <glyph glyph-name="R" unicode="R" horiz-adv-x="646" 
d="M452 332c55 -30 88 -87 93 -158l12 -174h-82l-12 169c-4 68 -48 116 -114 116h-190v-285h-85v700h265c138 0 223 -83 223 -205c0 -77 -44 -132 -110 -163zM159 624v-262h180c98 0 135 64 135 133s-37 129 -135 129h-180z" />
    <glyph glyph-name="S" unicode="S" horiz-adv-x="594" 
d="M301 -8c-157 0 -257 94 -266 237h84c9 -97 73 -160 182 -160c97 0 167 37 167 122c0 180 -409 81 -409 331c0 111 97 186 237 186s237 -81 247 -207h-84c-8 79 -69 130 -163 130c-95 0 -151 -42 -151 -109c0 -179 412 -68 412 -331c0 -127 -110 -199 -256 -199z" />
    <glyph glyph-name="T" unicode="T" horiz-adv-x="557" 
d="M236 0v623h-224v77h533v-77h-223v-623h-86z" />
    <glyph glyph-name="U" unicode="U" horiz-adv-x="652" 
d="M326 -8c-159 0 -264 95 -264 248v460h84v-464c0 -103 72 -167 180 -167c109 0 181 64 181 167v464h83v-460c0 -153 -105 -248 -264 -248z" />
    <glyph glyph-name="V" unicode="V" horiz-adv-x="631" 
d="M272 0l-265 700h88l220 -601l222 601h87l-265 -700h-87z" />
    <glyph glyph-name="W" unicode="W" horiz-adv-x="996" 
d="M239 0l-217 700h89l172 -571l177 571h76l176 -571l174 571h87l-214 -700h-88l-173 569l-174 -569h-85z" />
    <glyph glyph-name="X" unicode="X" horiz-adv-x="605" 
d="M572 0h-89l-180 284l-181 -284h-89l225 355l-219 345h89l175 -275l174 275h90l-220 -346z" />
    <glyph glyph-name="Y" unicode="Y" horiz-adv-x="590" 
d="M252 0v293l-248 407h97l194 -325l193 325h97l-248 -407v-293h-85z" />
    <glyph glyph-name="Z" unicode="Z" 
d="M33 0v77l428 546h-405v77h503v-77l-420 -546h421v-77h-527z" />
    <glyph glyph-name="E.titl" horiz-adv-x="566" 
d="M181 0c-70 0 -107 38 -107 108v485c0 69 37 107 107 107h331v-77h-318c-22 0 -35 -13 -35 -35v-188h287v-77h-287v-211c0 -22 13 -35 35 -35h329v-77h-342z" />
    <glyph glyph-name="F.titl" horiz-adv-x="560" 
d="M74 0v593c0 69 37 107 107 107h331v-77h-318c-22 0 -35 -13 -35 -35v-196h287v-77h-287v-315h-85z" />
    <glyph glyph-name="L.titl" horiz-adv-x="523" 
d="M181 0c-70 0 -107 38 -107 108v592h85v-588c0 -22 13 -35 35 -35h315v-77h-328z" />
    <glyph glyph-name="a" unicode="a" horiz-adv-x="526" 
d="M261 512c131 0 213 -75 213 -187v-325h-80v87c-27 -58 -94 -95 -172 -95c-106 0 -175 60 -175 152c0 96 79 157 201 157h114c22 0 32 11 32 27c0 69 -49 116 -135 116c-74 0 -132 -46 -136 -101h-76c9 97 101 169 214 169zM234 60c101 0 160 63 160 167v13h-141
c-75 0 -124 -36 -124 -95c0 -52 41 -85 105 -85z" />
    <glyph glyph-name="b" unicode="b" 
d="M317 -8c-71 0 -137 36 -167 91v-83h-80v711h80v-289c30 54 96 90 167 90c157 0 243 -113 243 -260s-86 -260 -243 -260zM310 64c101 0 168 74 168 188s-67 188 -168 188s-167 -74 -167 -188s66 -188 167 -188z" />
    <glyph glyph-name="c" unicode="c" horiz-adv-x="543" 
d="M282 -8c-159 0 -245 125 -245 260s86 260 245 260c113 0 214 -66 229 -178h-79c-10 61 -73 106 -149 106c-110 0 -163 -85 -163 -188s54 -188 163 -188c76 0 131 38 149 99h78c-17 -103 -100 -171 -228 -171z" />
    <glyph glyph-name="d" unicode="d" 
d="M280 -8c-157 0 -243 113 -243 260s86 260 243 260c71 0 137 -36 167 -90v289h80v-711h-80v83c-30 -55 -96 -91 -167 -91zM287 64c101 0 167 74 167 188s-66 188 -167 188s-168 -74 -168 -188s67 -188 168 -188z" />
    <glyph glyph-name="e" unicode="e" horiz-adv-x="554" 
d="M436 162h81c-17 -103 -106 -170 -231 -170c-149 0 -249 119 -249 263c0 148 92 257 240 257c147 0 235 -102 235 -236c0 -11 -1 -28 -2 -35h-394c6 -104 75 -178 170 -178c82 0 134 36 150 99zM277 444c-85 0 -142 -50 -157 -139h310c-6 85 -63 139 -153 139z" />
    <glyph glyph-name="f" unicode="f" horiz-adv-x="379" 
d="M121 0v433h-105v71h105v51c0 96 61 156 157 156h80v-71h-76c-49 0 -81 -32 -81 -86v-50h157v-71h-157v-433h-80z" />
    <glyph glyph-name="g" unicode="g" horiz-adv-x="601" 
d="M451 504h80v-526c0 -107 -77 -182 -186 -182h-238v69h233c65 0 111 49 111 116v89c-24 -47 -91 -78 -167 -78c-157 0 -243 113 -243 260s86 260 243 260c68 0 136 -34 167 -82v74zM291 64c101 0 167 74 167 188s-66 188 -167 188c-102 0 -168 -74 -168 -188
s66 -188 168 -188z" />
    <glyph glyph-name="h" unicode="h" horiz-adv-x="570" 
d="M70 0v711h80v-304c26 70 89 105 166 105c114 0 188 -81 188 -204v-308h-80v295c0 86 -50 144 -126 144c-86 0 -148 -69 -148 -167v-272h-80z" />
    <glyph glyph-name="i" unicode="i" horiz-adv-x="212" 
d="M59 712h93v-118h-93v118zM66 0v504h80v-504h-80z" />
    <glyph glyph-name="j" unicode="j" horiz-adv-x="212" 
d="M59 712h93v-118h-93v118zM66 504h80v-543c0 -106 -35 -165 -145 -165h-46v69h41c65 0 70 32 70 99v540z" />
    <glyph glyph-name="k" unicode="k" horiz-adv-x="525" 
d="M413 0l-196 252l-66 -60v-192h-81v711h81v-420l237 213h106l-216 -197l236 -307h-101z" />
    <glyph glyph-name="l" unicode="l" horiz-adv-x="220" 
d="M70 0v711h80v-711h-80z" />
    <glyph glyph-name="m" unicode="m" horiz-adv-x="868" 
d="M66 0v504h80v-97c19 61 75 105 152 105c83 0 148 -38 166 -107c19 60 86 107 163 107c109 0 175 -73 175 -195v-317h-80v296c0 86 -43 145 -114 145c-84 0 -134 -59 -134 -145v-296h-80v296c0 86 -43 145 -113 145c-85 0 -135 -59 -135 -145v-296h-80z" />
    <glyph glyph-name="n" unicode="n" horiz-adv-x="566" 
d="M66 0v504h80v-97c26 70 89 105 166 105c114 0 188 -81 188 -204v-308h-80v295c0 86 -50 144 -126 144c-86 0 -148 -69 -148 -167v-272h-80z" />
    <glyph glyph-name="o" unicode="o" horiz-adv-x="587" 
d="M293 -8c-149 0 -256 109 -256 260c0 152 107 260 256 260c150 0 257 -108 257 -260c0 -151 -107 -260 -257 -260zM293 64c104 0 175 78 175 188s-71 188 -175 188c-103 0 -174 -78 -174 -188s71 -188 174 -188z" />
    <glyph glyph-name="p" unicode="p" 
d="M70 -204v708h80v-83c31 55 96 91 168 91c156 0 242 -113 242 -260s-88 -260 -244 -260c-71 0 -136 35 -166 89v-285h-80zM310 64c101 0 167 74 167 188s-66 188 -167 188s-167 -74 -167 -188s66 -188 167 -188z" />
    <glyph glyph-name="q" unicode="q" 
d="M527 -204h-80v285c-30 -54 -95 -89 -166 -89c-156 0 -244 113 -244 260s86 260 242 260c72 0 137 -36 168 -91v83h80v-708zM287 64c101 0 167 74 167 188s-66 188 -167 188s-167 -74 -167 -188s66 -188 167 -188z" />
    <glyph glyph-name="r" unicode="r" horiz-adv-x="366" 
d="M347 433h-70c-102 0 -131 -92 -131 -211v-222h-80v504h80v-102c21 69 63 102 137 102h64v-71z" />
    <glyph glyph-name="s" unicode="s" horiz-adv-x="470" 
d="M241 -8c-117 0 -193 65 -201 170h77c7 -65 51 -100 124 -100c63 0 105 35 105 76c0 150 -293 15 -293 233c0 85 72 141 178 141c111 0 186 -61 192 -154h-78c-7 64 -70 86 -116 86c-59 0 -98 -28 -98 -72c0 -136 295 -1 295 -232c0 -90 -74 -148 -185 -148z" />
    <glyph glyph-name="t" unicode="t" horiz-adv-x="377" 
d="M121 665h80v-161h155v-71h-155v-271c0 -56 32 -89 81 -89h74v-73h-77c-96 0 -158 60 -158 158v275h-105v71h105v161z" />
    <glyph glyph-name="u" unicode="u" horiz-adv-x="566" 
d="M500 504v-504h-80v97c-26 -70 -89 -105 -166 -105c-114 0 -188 81 -188 204v308h80v-295c0 -86 50 -144 126 -144c86 0 148 69 148 167v272h80z" />
    <glyph glyph-name="v" unicode="v" horiz-adv-x="479" 
d="M198 0l-185 504h83l143 -404l143 404h84l-185 -504h-83z" />
    <glyph glyph-name="w" unicode="w" horiz-adv-x="743" 
d="M171 0l-153 504h80l111 -400l124 400h78l122 -400l111 400h81l-153 -504h-77l-124 401l-123 -401h-77z" />
    <glyph glyph-name="x" unicode="x" horiz-adv-x="484" 
d="M469 0h-85l-142 203l-142 -203h-85l183 265l-167 239h89l122 -176l122 176h89l-167 -239z" />
    <glyph glyph-name="y" unicode="y" horiz-adv-x="479" 
d="M466 504l-160 -435l-92 -273h-77l64 196l-188 512h83l143 -400l143 400h84z" />
    <glyph glyph-name="z" unicode="z" horiz-adv-x="496" 
d="M41 0v71l312 362h-298v71h391v-71l-310 -362h324v-71h-419z" />
    <glyph glyph-name="a.ss01" horiz-adv-x="601" 
d="M284 -8c-157 0 -243 113 -243 260s86 260 243 260c67 0 135 -34 167 -82v74h80v-504h-80v75c-23 -47 -91 -83 -167 -83zM291 64c101 0 167 74 167 188s-66 188 -167 188s-168 -74 -168 -188s67 -188 168 -188z" />
    <glyph glyph-name="g.ss02" horiz-adv-x="524" 
d="M331 90c96 0 166 -43 166 -137c0 -90 -54 -157 -151 -157h-155c-96 0 -155 62 -155 148c0 46 25 83 55 106c-26 17 -41 43 -41 80c0 41 25 67 60 104c-22 28 -34 64 -34 105c0 105 82 173 189 173c27 0 53 -5 77 -14l70 78l54 -49l-61 -68c31 -30 51 -72 51 -120
c0 -105 -82 -173 -191 -173c-40 0 -76 9 -105 25c-23 -25 -32 -37 -32 -57c0 -33 28 -44 62 -44h141zM265 446c-59 0 -110 -39 -110 -107s51 -107 110 -107c60 0 112 39 112 107s-52 107 -112 107zM345 -135c53 0 74 34 74 80c0 57 -37 78 -95 78h-115c-19 0 -36 1 -52 4
c-33 -22 -43 -52 -43 -83c0 -44 33 -79 78 -79h153z" />
    <glyph glyph-name="y.ss03" horiz-adv-x="479" 
d="M466 504l-164 -446l-49 -136c-28 -78 -66 -126 -137 -126h-58v69h54c25 0 50 11 70 71l19 57l-188 511h83l143 -404l143 404h84z" />
    <glyph glyph-name="t.ss04" horiz-adv-x="377" 
d="M121 665h80v-161h155v-71h-155v-271c0 -56 32 -89 81 -89h74v-73h-77c-96 0 -158 60 -158 158v275h-105v71h78c18 0 27 8 27 27v134z" />
    <glyph glyph-name="zero" unicode="0" horiz-adv-x="608" 
d="M286 -8c-169 0 -238 116 -238 330v56c0 214 69 330 238 330h35c171 0 239 -116 239 -330v-56c0 -214 -68 -330 -239 -330h-35zM289 69h31c109 0 155 81 155 243v76c0 162 -46 243 -155 243h-31c-109 0 -155 -81 -155 -243v-76c0 -162 46 -243 155 -243z" />
    <glyph glyph-name="one" unicode="1" horiz-adv-x="344" 
d="M270 700v-700h-85v554c-11 -16 -36 -24 -63 -24h-67v77h57c44 0 69 19 74 93h84z" />
    <glyph glyph-name="two" unicode="2" horiz-adv-x="560" 
d="M63 473c-5 143 87 235 231 235c132 0 227 -82 227 -209c0 -91 -56 -168 -163 -221l-100 -51c-57 -29 -121 -82 -121 -150h388v-77h-471v61c0 125 98 202 170 238l107 55c75 38 102 86 102 147c0 80 -59 132 -139 132c-90 0 -147 -64 -143 -160h-88z" />
    <glyph glyph-name="three" unicode="3" 
d="M308 -8c-141 0 -251 91 -251 228h84c0 -91 72 -151 167 -151c98 0 160 47 160 130c0 82 -62 126 -160 126h-56v75h55c83 0 133 51 133 121c0 69 -54 110 -138 110c-80 0 -132 -47 -137 -130h-83c5 127 96 207 221 207c130 0 224 -77 224 -184c0 -71 -45 -131 -101 -156
c73 -24 129 -86 129 -170c0 -134 -116 -206 -247 -206z" />
    <glyph glyph-name="four" unicode="4" horiz-adv-x="648" 
d="M409 0v175h-376v77l361 448h100v-448h109v-77h-109v-175h-85zM124 252h285v354z" />
    <glyph glyph-name="five" unicode="5" horiz-adv-x="598" 
d="M293 -8c-128 0 -224 87 -236 205h82c11 -82 69 -128 154 -128c103 0 169 60 169 160s-66 166 -168 166c-77 0 -132 -31 -153 -82h-70l54 387h375v-77h-310l-31 -211c34 32 92 57 145 57c146 0 246 -98 246 -240s-105 -237 -257 -237z" />
    <glyph glyph-name="six" unicode="6" horiz-adv-x="629" 
d="M321 468c145 0 246 -101 246 -238c0 -138 -106 -238 -250 -238c-160 0 -260 128 -260 321c0 263 118 396 273 396c129 0 223 -76 242 -187h-86c-15 68 -72 111 -155 111c-112 0 -187 -120 -194 -274c30 65 106 109 184 109zM317 69c95 0 162 68 162 162
c0 93 -67 160 -162 160c-94 0 -162 -67 -162 -160c0 -94 68 -162 162 -162z" />
    <glyph glyph-name="seven" unicode="7" horiz-adv-x="565" 
d="M180 0c1 106 14 208 109 362l161 261h-408v77h505v-70l-192 -317c-79 -132 -89 -221 -89 -313h-86z" />
    <glyph glyph-name="eight" unicode="8" horiz-adv-x="612" 
d="M306 -8c-135 0 -249 74 -249 207c0 85 57 153 130 178c-56 27 -102 77 -102 147c0 108 90 184 221 184s221 -76 221 -184c0 -70 -46 -120 -102 -147c74 -25 130 -93 130 -178c0 -133 -114 -207 -249 -207zM306 410c83 0 136 43 136 113c0 69 -53 110 -136 110
s-136 -41 -136 -110c0 -70 53 -113 136 -113zM306 69c98 0 162 49 162 130c0 83 -64 133 -162 133s-162 -50 -162 -133c0 -81 64 -130 162 -130z" />
    <glyph glyph-name="nine" unicode="9" horiz-adv-x="628" 
d="M307 232c-145 0 -246 101 -246 238c0 138 106 238 250 238c160 0 260 -128 260 -321c0 -263 -118 -396 -273 -396c-129 0 -223 76 -242 187h86c15 -68 72 -111 155 -111c112 0 187 120 194 274c-30 -65 -106 -109 -184 -109zM311 631c-95 0 -162 -68 -162 -162
c0 -93 67 -160 162 -160c94 0 162 67 162 160c0 94 -68 162 -162 162z" />
    <glyph glyph-name="eight.dlig" horiz-adv-x="590" 
d="M67 518c0 109 96 190 228 190s227 -81 227 -190c0 -126 -95 -128 -95 -165s105 -45 105 -170c0 -111 -98 -191 -237 -191c-138 0 -238 80 -238 191c0 125 106 133 106 170s-96 39 -96 165zM146 513c0 -97 101 -101 101 -160c0 -58 -109 -69 -109 -165
c0 -69 66 -120 157 -120c92 0 158 51 158 120c0 96 -113 107 -113 165c0 59 104 63 104 160c0 71 -62 119 -149 119c-88 0 -149 -48 -149 -119z" />
    <glyph glyph-name="hyphen" unicode="-" horiz-adv-x="469" 
d="M52 282v70h365v-70h-365z" />
    <glyph glyph-name="space" unicode=" " horiz-adv-x="238" 
 />
    <glyph glyph-name="CR" unicode="&#xd;" horiz-adv-x="251" 
 />
    </font>
</defs>
</svg>
