<?xml version="1.0" standalone="no"?>
<!DOCTYPE svg PUBLIC "-//W3C//DTD SVG 1.1//EN" "http://www.w3.org/Graphics/SVG/1.1/DTD/svg11.dtd" >
<svg xmlns="http://www.w3.org/2000/svg" xmlns:xlink="http://www.w3.org/1999/xlink" version="1.1">
<metadata>
Created by FontForge 20190801 at Tue Feb 13 01:06:27 2018
 By Jimmy Wärting
Copyright \(c\) 2017 by Martin V_cha. All rights reserved.
</metadata>
<defs>
<font id="RoobertTRIAL-Light" horiz-adv-x="596" >
  <font-face 
    font-family="Roobert TRIAL Light"
    font-weight="300"
    font-stretch="normal"
    units-per-em="1000"
    panose-1="0 0 4 0 0 0 0 0 0 0"
    ascent="796"
    descent="-204"
    x-height="504"
    cap-height="700"
    bbox="-46 -204 1068 796"
    underline-thickness="50"
    underline-position="-100"
    stemh="48"
    stemv="54"
    unicode-range="U+000D-007A"
  />
<missing-glyph horiz-adv-x="1119" 
d="M551 -204v1000c-266 -9 -483 -234 -483 -501c0 -268 215 -490 483 -499zM585 793v-994c84 24 152 241 152 496s-69 473 -152 498zM769 295c0 -214 -44 -397 -113 -481c148 55 254 252 254 481c0 227 -106 426 -254 483c69 -85 113 -269 113 -483zM754 -168
c186 74 314 258 314 463s-129 390 -317 465c118 -94 192 -271 192 -465s-74 -370 -189 -463z" />
    <glyph glyph-name=".notdef" horiz-adv-x="1119" 
d="M551 -204v1000c-266 -9 -483 -234 -483 -501c0 -268 215 -490 483 -499zM585 793v-994c84 24 152 241 152 496s-69 473 -152 498zM769 295c0 -214 -44 -397 -113 -481c148 55 254 252 254 481c0 227 -106 426 -254 483c69 -85 113 -269 113 -483zM754 -168
c186 74 314 258 314 463s-129 390 -317 465c118 -94 192 -271 192 -465s-74 -370 -189 -463z" />
    <glyph glyph-name="A" unicode="A" horiz-adv-x="639" 
d="M561 0l-77 199h-329l-78 -199h-69l282 700h59l282 -700h-70zM179 261h281l-140 360z" />
    <glyph glyph-name="B" unicode="B" horiz-adv-x="604" 
d="M76 0v700h243c134 0 211 -67 211 -180c0 -65 -47 -117 -96 -137c74 -24 126 -81 126 -181c0 -123 -80 -202 -223 -202h-261zM143 404h176c90 0 141 38 141 117s-51 117 -140 117h-177v-234zM143 62h179c109 0 167 49 167 140s-58 140 -167 140h-179v-280z" />
    <glyph glyph-name="C" unicode="C" horiz-adv-x="701" 
d="M377 -8c-171 0 -333 115 -333 358s163 358 333 358c146 0 269 -93 288 -219h-70c-13 90 -106 157 -218 157c-155 0 -263 -105 -263 -296s108 -296 263 -296c115 0 208 67 218 157h70c-16 -126 -139 -219 -288 -219z" />
    <glyph glyph-name="D" unicode="D" horiz-adv-x="664" 
d="M76 0v700h198c197 0 346 -131 346 -350s-149 -350 -346 -350h-198zM143 62h133c142 0 273 87 273 288s-131 288 -273 288h-133v-576z" />
    <glyph glyph-name="E" unicode="E" horiz-adv-x="560" 
d="M76 0v700h427v-62h-360v-244h295v-62h-295v-270h371v-62h-438z" />
    <glyph glyph-name="F" unicode="F" horiz-adv-x="549" 
d="M76 0v700h427v-62h-360v-252h295v-62h-295v-324h-67z" />
    <glyph glyph-name="G" unicode="G" horiz-adv-x="726" 
d="M378 -8c-172 0 -334 119 -334 358s162 358 333 358c156 0 281 -93 299 -222h-74c-17 93 -112 160 -225 160c-152 0 -262 -104 -262 -296s110 -296 262 -296c123 0 230 65 230 177c0 36 -24 60 -63 60h-165v62h169c47 0 127 -36 127 -122v-231h-64v126
c-35 -79 -126 -134 -233 -134z" />
    <glyph glyph-name="H" unicode="H" horiz-adv-x="680" 
d="M537 700h67v-700h-67v331h-394v-331h-67v700h67v-307h394v307z" />
    <glyph glyph-name="I" unicode="I" horiz-adv-x="219" 
d="M76 0v700h67v-700h-67z" />
    <glyph glyph-name="J" unicode="J" horiz-adv-x="302" 
d="M17 62h90c43 0 67 37 67 106v532h67v-532c0 -109 -47 -168 -134 -168h-90v62z" />
    <glyph glyph-name="K" unicode="K" horiz-adv-x="617" 
d="M526 0l-278 371l-104 -105v-266h-68v700h68v-344l342 344h86l-278 -282l310 -418h-78z" />
    <glyph glyph-name="L" unicode="L" horiz-adv-x="517" 
d="M76 0v700h67v-638h359v-62h-426z" />
    <glyph glyph-name="M" unicode="M" horiz-adv-x="818" 
d="M76 0v700h95l238 -613l238 613h95v-700h-67v596l-234 -596h-64l-234 596v-596h-67z" />
    <glyph glyph-name="N" unicode="N" horiz-adv-x="682" 
d="M76 0v700h80l383 -600v600h67v-700h-80l-383 598v-598h-67z" />
    <glyph glyph-name="O" unicode="O" horiz-adv-x="767" 
d="M383 -8c-195 0 -339 152 -339 358s144 358 339 358s340 -152 340 -358s-145 -358 -340 -358zM383 54c155 0 270 126 270 296s-115 296 -270 296c-154 0 -269 -126 -269 -296s115 -296 269 -296z" />
    <glyph glyph-name="P" unicode="P" horiz-adv-x="580" 
d="M76 0v700h257c135 0 219 -82 219 -203s-84 -203 -219 -203h-190v-294h-67zM143 356h192c107 0 146 67 146 141s-39 141 -146 141h-192v-282z" />
    <glyph glyph-name="Q" unicode="Q" horiz-adv-x="767" 
d="M723 350c0 -195 -129 -341 -308 -357v-43c0 -73 31 -96 102 -96h88v-58h-88c-108 0 -165 47 -165 154v43c-179 16 -308 162 -308 357c0 206 144 358 339 358s340 -152 340 -358zM114 350c0 -170 115 -296 269 -296c155 0 270 126 270 296s-115 296 -270 296
c-154 0 -269 -126 -269 -296z" />
    <glyph glyph-name="R" unicode="R" horiz-adv-x="640" 
d="M437 331c57 -30 92 -89 96 -163l10 -168h-63l-10 168c-4 73 -51 126 -122 126h-205v-294h-67v700h257c135 0 219 -80 219 -201c0 -79 -46 -136 -115 -168zM143 638v-282h192c107 0 146 69 146 143s-39 139 -146 139h-192z" />
    <glyph glyph-name="S" unicode="S" horiz-adv-x="597" 
d="M302 -8c-156 0 -254 93 -264 235h67c10 -105 79 -173 197 -173c106 0 184 39 184 133c0 193 -423 95 -423 339c0 109 96 182 236 182c136 0 232 -80 244 -203h-67c-9 85 -76 141 -177 141c-105 0 -167 -46 -167 -120c0 -189 425 -80 425 -339c0 -126 -111 -195 -255 -195
z" />
    <glyph glyph-name="T" unicode="T" horiz-adv-x="550" 
d="M242 0v638h-229v62h524v-62h-228v-638h-67z" />
    <glyph glyph-name="U" unicode="U" horiz-adv-x="650" 
d="M325 -8c-157 0 -260 96 -260 243v465h68v-471c0 -106 76 -175 192 -175c117 0 193 69 193 175v471h67v-465c0 -147 -103 -243 -260 -243z" />
    <glyph glyph-name="V" unicode="V" horiz-adv-x="623" 
d="M276 0l-268 700h69l234 -626l235 626h69l-268 -700h-71z" />
    <glyph glyph-name="W" unicode="W" horiz-adv-x="989" 
d="M243 0l-219 700h70l184 -598l186 598h61l186 -598l185 598h69l-217 -700h-70l-183 598l-184 -598h-68z" />
    <glyph glyph-name="X" unicode="X" horiz-adv-x="599" 
d="M563 0h-70l-193 301l-194 -301h-70l229 356l-221 344h70l186 -290l186 290h70l-221 -344z" />
    <glyph glyph-name="Y" unicode="Y" horiz-adv-x="578" 
d="M255 0v294l-250 406h79l205 -341l204 341h80l-251 -406v-294h-67z" />
    <glyph glyph-name="Z" unicode="Z" horiz-adv-x="598" 
d="M36 0v62l443 576h-419v62h498v-62l-435 -576h435v-62h-522z" />
    <glyph glyph-name="E.titl" horiz-adv-x="560" 
d="M176 0c-65 0 -100 35 -100 100v500c0 65 35 100 100 100h327v-62h-325c-22 0 -35 -13 -35 -35v-209h295v-62h-295v-235c0 -22 13 -35 35 -35h336v-62h-338z" />
    <glyph glyph-name="F.titl" horiz-adv-x="556" 
d="M76 0v600c0 65 35 100 100 100h327v-62h-325c-22 0 -35 -13 -35 -35v-217h295v-62h-295v-324h-67z" />
    <glyph glyph-name="L.titl" horiz-adv-x="517" 
d="M176 0c-65 0 -100 35 -100 100v600h67v-603c0 -22 13 -35 35 -35h324v-62h-326z" />
    <glyph glyph-name="a" unicode="a" horiz-adv-x="527" 
d="M261 512c132 0 211 -75 211 -187v-325h-63v92c-30 -61 -100 -100 -181 -100c-108 0 -177 59 -177 152c0 96 80 157 205 157h122c22 0 31 9 31 24c0 76 -54 129 -148 129c-78 0 -144 -49 -148 -108h-63c10 97 106 166 211 166zM233 50c111 0 176 67 176 183v15h-153
c-84 0 -138 -40 -138 -104c0 -57 45 -94 115 -94z" />
    <glyph glyph-name="b" unicode="b" 
d="M311 -8c-74 0 -144 40 -175 99v-91h-63v708h63v-295c31 59 101 99 175 99c160 0 245 -116 245 -260s-85 -260 -245 -260zM309 50c109 0 180 80 180 202s-71 202 -180 202s-180 -80 -180 -202s71 -202 180 -202z" />
    <glyph glyph-name="c" unicode="c" horiz-adv-x="540" 
d="M281 -8c-160 0 -241 128 -241 260s81 260 241 260c107 0 207 -62 224 -173h-62c-10 66 -79 115 -162 115c-120 0 -175 -93 -175 -202s56 -202 175 -202c83 0 142 40 162 106h60c-18 -101 -95 -164 -222 -164z" />
    <glyph glyph-name="d" unicode="d" 
d="M285 -8c-160 0 -245 116 -245 260s85 260 245 260c74 0 144 -40 175 -99v295h63v-708h-63v91c-31 -59 -101 -99 -175 -99zM287 50c109 0 180 80 180 202s-71 202 -180 202s-180 -80 -180 -202s71 -202 180 -202z" />
    <glyph glyph-name="e" unicode="e" horiz-adv-x="555" 
d="M449 159h66c-16 -101 -103 -167 -228 -167c-143 0 -247 114 -247 264c0 153 96 256 238 256c138 0 231 -94 231 -233c0 -9 -1 -26 -2 -33h-403c4 -113 82 -196 183 -196c89 0 145 40 162 109zM278 454c-92 0 -154 -56 -170 -150h335c-7 93 -69 150 -165 150z" />
    <glyph glyph-name="f" unicode="f" horiz-adv-x="366" 
d="M123 0v446h-108v58h108v53c0 93 57 151 148 151h75v-58h-76c-51 0 -84 -35 -84 -93v-53h160v-58h-160v-446h-63z" />
    <glyph glyph-name="g" unicode="g" horiz-adv-x="599" 
d="M463 504h63v-524c0 -107 -77 -184 -185 -184h-233v58h233c71 0 122 53 122 126v95c-23 -49 -95 -83 -175 -83c-160 0 -245 116 -245 260s85 260 245 260c70 0 143 -37 175 -89v81zM290 50c109 0 180 80 180 202s-71 202 -180 202s-180 -80 -180 -202s71 -202 180 -202z
" />
    <glyph glyph-name="h" unicode="h" horiz-adv-x="564" 
d="M73 0v708h63v-309c26 76 90 113 170 113c114 0 188 -81 188 -206v-306h-63v298c0 94 -53 156 -134 156c-94 0 -161 -76 -161 -183v-271h-63z" />
    <glyph glyph-name="i" unicode="i" horiz-adv-x="203" 
d="M63 708h76v-110h-76v110zM70 0v504h63v-504h-63z" />
    <glyph glyph-name="j" unicode="j" horiz-adv-x="203" 
d="M62 708h76v-110h-76v110zM70 504h63v-544c0 -107 -27 -164 -135 -164h-44v58h44c71 0 72 33 72 106v544z" />
    <glyph glyph-name="k" unicode="k" horiz-adv-x="512" 
d="M417 0l-210 264l-70 -62v-202h-64v708h64v-429l255 225h86l-222 -196l243 -308h-82z" />
    <glyph glyph-name="l" unicode="l" horiz-adv-x="209" 
d="M73 0v708h63v-708h-63z" />
    <glyph glyph-name="m" unicode="m" horiz-adv-x="862" 
d="M70 0v504h63v-105c17 66 75 113 155 113c84 0 153 -40 169 -112c17 64 86 112 161 112c109 0 174 -71 174 -199v-313h-63v299c0 92 -45 155 -121 155c-92 0 -146 -63 -146 -155v-299h-63v299c0 92 -45 155 -120 155c-92 0 -146 -63 -146 -155v-299h-63z" />
    <glyph glyph-name="n" unicode="n" horiz-adv-x="561" 
d="M70 0v504h63v-105c26 76 90 113 170 113c114 0 188 -81 188 -206v-306h-63v298c0 94 -53 156 -134 156c-94 0 -161 -76 -161 -183v-271h-63z" />
    <glyph glyph-name="o" unicode="o" horiz-adv-x="588" 
d="M294 -8c-148 0 -254 108 -254 260s106 260 254 260s254 -108 254 -260s-106 -260 -254 -260zM294 50c112 0 188 84 188 202s-76 202 -188 202s-188 -84 -188 -202s76 -202 188 -202z" />
    <glyph glyph-name="p" unicode="p" 
d="M73 -204v708h63v-91c31 59 101 99 175 99c160 0 245 -116 245 -260s-85 -260 -245 -260c-74 0 -144 40 -175 99v-295h-63zM309 50c109 0 180 80 180 202s-71 202 -180 202s-180 -80 -180 -202s71 -202 180 -202z" />
    <glyph glyph-name="q" unicode="q" 
d="M523 -204h-63v295c-31 -59 -101 -99 -175 -99c-160 0 -245 116 -245 260s85 260 245 260c74 0 144 -40 175 -99v91h63v-708zM287 50c109 0 180 80 180 202s-71 202 -180 202s-180 -80 -180 -202s71 -202 180 -202z" />
    <glyph glyph-name="r" unicode="r" horiz-adv-x="359" 
d="M339 446h-66c-111 0 -140 -102 -140 -231v-215h-63v504h63v-107c20 70 62 107 140 107h66v-58z" />
    <glyph glyph-name="s" unicode="s" horiz-adv-x="472" 
d="M242 -8c-114 0 -189 63 -197 167h63c7 -71 54 -109 134 -109c70 0 116 40 116 86c0 165 -301 19 -301 238c0 84 70 138 178 138c107 0 180 -60 186 -151h-63c-8 71 -79 93 -127 93c-65 0 -108 -32 -108 -80c0 -146 301 -6 301 -238c0 -88 -73 -144 -182 -144z" />
    <glyph glyph-name="t" unicode="t" horiz-adv-x="366" 
d="M123 669h63v-165h160v-58h-160v-295c0 -58 33 -93 84 -93h76v-58h-75c-91 0 -148 58 -148 151v295h-108v58h108v165z" />
    <glyph glyph-name="u" unicode="u" horiz-adv-x="561" 
d="M491 504v-504h-63v105c-26 -76 -90 -113 -170 -113c-114 0 -188 81 -188 206v306h63v-298c0 -94 53 -156 134 -156c94 0 161 76 161 183v271h63z" />
    <glyph glyph-name="v" unicode="v" horiz-adv-x="471" 
d="M200 0l-185 504h66l154 -426l154 426h67l-185 -504h-71z" />
    <glyph glyph-name="w" unicode="w" horiz-adv-x="733" 
d="M170 0l-150 504h63l118 -426l134 426h64l132 -426l118 426h64l-150 -504h-64l-133 426l-132 -426h-64z" />
    <glyph glyph-name="x" unicode="x" horiz-adv-x="471" 
d="M454 0h-67l-151 216l-152 -216h-67l184 266l-167 238h71l131 -188l130 188h71l-167 -238z" />
    <glyph glyph-name="y" unicode="y" horiz-adv-x="471" 
d="M456 504l-167 -456l-85 -252h-61l62 192l-190 516h66l154 -421l154 421h67z" />
    <glyph glyph-name="z" unicode="z" horiz-adv-x="495" 
d="M43 0v58l326 388h-312v58h386v-58l-323 -388h337v-58h-414z" />
    <glyph glyph-name="a.ss01" horiz-adv-x="599" 
d="M288 -8c-160 0 -245 116 -245 260s85 260 245 260c69 0 142 -37 175 -89v81h63v-504h-63v81c-22 -49 -95 -89 -175 -89zM290 50c109 0 180 80 180 202s-71 202 -180 202s-180 -80 -180 -202s71 -202 180 -202z" />
    <glyph glyph-name="g.ss02" horiz-adv-x="520" 
d="M327 86c93 0 163 -40 163 -135c0 -88 -50 -155 -145 -155h-156c-86 0 -149 63 -149 147c0 50 28 87 58 108c-29 16 -45 43 -45 84c0 40 25 64 58 101c-20 28 -32 64 -32 104c0 104 81 172 185 172c26 0 51 -5 74 -14l70 76l45 -43l-61 -66c36 -30 58 -74 58 -125
c0 -105 -81 -172 -186 -172c-44 0 -82 11 -112 30c-27 -29 -37 -40 -37 -63c0 -37 33 -49 68 -49h144zM264 458c-64 0 -121 -43 -121 -118s57 -118 121 -118c65 0 122 43 122 118s-57 118 -122 118zM345 -147c59 0 83 38 83 90c0 65 -43 88 -108 88h-114c-19 0 -36 1 -52 3
c-40 -22 -52 -57 -52 -93c0 -50 37 -88 87 -88h156z" />
    <glyph glyph-name="y.ss03" horiz-adv-x="471" 
d="M456 504l-185 -504l-30 -83c-27 -74 -66 -121 -129 -121h-53v58h53c26 0 51 10 73 76l19 59l-189 515h66l154 -426l154 426h67z" />
    <glyph glyph-name="t.ss04" horiz-adv-x="366" 
d="M123 669h63v-165h160v-58h-160v-295c0 -58 33 -93 84 -93h76v-58h-75c-91 0 -148 58 -148 151v295h-108v58h83c17 0 25 8 25 25v140z" />
    <glyph glyph-name="zero" unicode="0" horiz-adv-x="597" 
d="M282 -8c-168 0 -232 114 -232 328v60c0 214 64 328 232 328h33c169 0 232 -114 232 -328v-60c0 -214 -63 -328 -232 -328h-33zM283 54h32c121 0 166 89 166 266v60c0 177 -45 266 -166 266h-32c-121 0 -166 -89 -166 -266v-60c0 -177 45 -266 166 -266z" />
    <glyph glyph-name="one" unicode="1" horiz-adv-x="329" 
d="M253 700v-700h-67v570c-10 -15 -28 -23 -55 -23h-71v62h59c41 0 63 18 67 91h67z" />
    <glyph glyph-name="two" unicode="2" horiz-adv-x="556" 
d="M69 479c-7 139 83 229 224 229c127 0 220 -81 220 -206c0 -90 -56 -167 -162 -220l-97 -49c-63 -32 -134 -93 -134 -171h398v-62h-462v46c0 130 99 208 173 246l105 54c82 42 109 93 109 158c0 86 -65 142 -150 142c-96 0 -159 -66 -154 -167h-70z" />
    <glyph glyph-name="three" unicode="3" horiz-adv-x="590" 
d="M306 -8c-139 0 -247 93 -247 227h67c0 -98 77 -165 180 -165c106 0 173 51 173 141s-67 137 -173 137h-53v62h53c91 0 145 56 145 132s-58 120 -149 120c-87 0 -142 -52 -148 -141h-66c6 123 90 203 214 203c128 0 219 -75 219 -182c0 -73 -48 -134 -106 -159
c75 -23 134 -85 134 -172c0 -134 -114 -203 -243 -203z" />
    <glyph glyph-name="four" unicode="4" horiz-adv-x="644" 
d="M416 0v185h-382v62l366 453h83v-453h117v-62h-117v-185h-67zM108 247h308v385z" />
    <glyph glyph-name="five" unicode="5" horiz-adv-x="594" 
d="M291 -8c-126 0 -219 85 -233 202h66c11 -90 75 -140 166 -140c113 0 185 65 185 174s-72 180 -184 180c-83 0 -145 -34 -166 -90h-52l53 382h368v-62h-317l-33 -232c36 35 100 62 152 62c149 0 249 -97 249 -240s-102 -236 -254 -236z" />
    <glyph glyph-name="six" unicode="6" horiz-adv-x="623" 
d="M314 468c144 0 247 -100 247 -238c0 -139 -103 -238 -247 -238c-154 0 -255 122 -255 316c0 271 119 401 269 401c123 0 216 -72 236 -182h-70c-17 75 -77 120 -166 120c-120 0 -199 -131 -206 -298c30 71 109 119 192 119zM314 54c103 0 177 74 177 177
c0 102 -74 175 -177 175s-177 -73 -177 -175c0 -103 74 -177 177 -177z" />
    <glyph glyph-name="seven" unicode="7" horiz-adv-x="565" 
d="M189 0c1 99 12 203 112 367l166 271h-423v62h500v-56l-195 -329c-84 -142 -92 -232 -93 -315h-67z" />
    <glyph glyph-name="eight" unicode="8" horiz-adv-x="606" 
d="M303 -8c-130 0 -244 70 -244 204c0 87 59 158 134 181c-58 25 -107 76 -107 149c0 107 88 182 217 182s217 -75 217 -182c0 -73 -49 -124 -107 -149c75 -23 134 -94 134 -181c0 -134 -114 -204 -244 -204zM303 403c90 0 147 47 147 123c0 75 -57 120 -147 120
s-147 -45 -147 -120c0 -76 57 -123 147 -123zM303 54c105 0 174 53 174 142c0 90 -69 145 -174 145s-174 -55 -174 -145c0 -89 69 -142 174 -142z" />
    <glyph glyph-name="nine" unicode="9" horiz-adv-x="623" 
d="M309 232c-144 0 -247 100 -247 238c0 139 103 238 247 238c154 0 255 -122 255 -316c0 -271 -119 -401 -269 -401c-123 0 -216 72 -236 182h70c17 -75 77 -120 166 -120c120 0 199 131 206 298c-30 -71 -109 -119 -192 -119zM309 646c-103 0 -177 -74 -177 -177
c0 -102 74 -175 177 -175s177 73 177 175c0 103 -74 177 -177 177z" />
    <glyph glyph-name="eight.dlig" horiz-adv-x="581" 
d="M69 520c0 109 92 188 222 188c129 0 221 -79 221 -188c0 -126 -101 -130 -101 -167s111 -47 111 -172c0 -110 -96 -189 -231 -189s-232 79 -232 189c0 125 111 135 111 172s-101 41 -101 167zM132 519c0 -101 106 -104 106 -166c0 -61 -116 -71 -116 -171
c0 -74 71 -128 169 -128s169 54 169 128c0 100 -119 110 -119 171c0 62 109 65 109 166c0 77 -67 127 -159 127c-94 0 -159 -50 -159 -127z" />
    <glyph glyph-name="hyphen" unicode="-" horiz-adv-x="464" 
d="M54 289v56h356v-56h-356z" />
    <glyph glyph-name="space" unicode=" " horiz-adv-x="245" 
 />
    <glyph glyph-name="CR" unicode="&#xd;" horiz-adv-x="252" 
 />
    </font>
</defs>
</svg>
